<svg width="19" height="19" viewBox="0 0 19 19" fill="none" xmlns="http://www.w3.org/2000/svg">
<path d="M14.8438 19H4.15625C3.68383 19 3.23077 18.8123 2.89672 18.4783C2.56267 18.1442 2.375 17.6912 2.375 17.2188V4.15625C2.375 3.68383 2.56267 3.23077 2.89672 2.89672C3.23077 2.56267 3.68383 2.375 4.15625 2.375H4.75C4.90747 2.375 5.05849 2.43756 5.16984 2.54891C5.28119 2.66026 5.34375 2.81128 5.34375 2.96875C5.34375 3.12622 5.28119 3.27724 5.16984 3.38859C5.05849 3.49994 4.90747 3.5625 4.75 3.5625H4.15625C3.99878 3.5625 3.84776 3.62506 3.73641 3.73641C3.62506 3.84776 3.5625 3.99878 3.5625 4.15625V17.2188C3.5625 17.3762 3.62506 17.5272 3.73641 17.6386C3.84776 17.7499 3.99878 17.8125 4.15625 17.8125H14.8438C15.0012 17.8125 15.1522 17.7499 15.2636 17.6386C15.3749 17.5272 15.4375 17.3762 15.4375 17.2188V9.5C15.4375 9.34253 15.5001 9.19151 15.6114 9.08016C15.7228 8.96881 15.8738 8.90625 16.0312 8.90625C16.1887 8.90625 16.3397 8.96881 16.4511 9.08016C16.5624 9.19151 16.625 9.34253 16.625 9.5V17.2188C16.625 17.6912 16.4373 18.1442 16.1033 18.4783C15.7692 18.8123 15.3162 19 14.8438 19Z" fill="#04009A"/>
<path d="M16.0312 7.71875C15.8738 7.71875 15.7228 7.65619 15.6114 7.54484C15.5001 7.43349 15.4375 7.28247 15.4375 7.125V4.15625C15.4375 3.99878 15.3749 3.84776 15.2636 3.73641C15.1522 3.62506 15.0012 3.5625 14.8438 3.5625H11.875C11.7175 3.5625 11.5665 3.49994 11.4552 3.38859C11.3438 3.27724 11.2812 3.12622 11.2812 2.96875C11.2812 2.81128 11.3438 2.66026 11.4552 2.54891C11.5665 2.43756 11.7175 2.375 11.875 2.375H14.8438C15.3162 2.375 15.7692 2.56267 16.1033 2.89672C16.4373 3.23077 16.625 3.68383 16.625 4.15625V7.125C16.625 7.28247 16.5624 7.43349 16.4511 7.54484C16.3397 7.65619 16.1887 7.71875 16.0312 7.71875Z" fill="#04009A"/>
<path d="M11.2812 4.75H7.71875C7.40381 4.75 7.10176 4.62489 6.87906 4.40219C6.65636 4.17949 6.53125 3.87744 6.53125 3.5625V2.375C6.53125 2.06006 6.65636 1.75801 6.87906 1.53531C7.10176 1.31261 7.40381 1.1875 7.71875 1.1875H11.2812C11.5962 1.1875 11.8982 1.31261 12.1209 1.53531C12.3436 1.75801 12.4688 2.06006 12.4688 2.375V3.5625C12.4688 3.87744 12.3436 4.17949 12.1209 4.40219C11.8982 4.62489 11.5962 4.75 11.2812 4.75ZM7.71875 2.375V3.5625H11.2812V2.375H7.71875Z" fill="#04009A"/>
<path d="M9.5 2.375C9.34253 2.375 9.19151 2.31244 9.08016 2.20109C8.96881 2.08974 8.90625 1.93872 8.90625 1.78125V0.59375C8.90625 0.436278 8.96881 0.285255 9.08016 0.173905C9.19151 0.0625556 9.34253 0 9.5 0C9.65747 0 9.8085 0.0625556 9.91985 0.173905C10.0312 0.285255 10.0938 0.436278 10.0938 0.59375V1.78125C10.0938 1.93872 10.0312 2.08974 9.91985 2.20109C9.8085 2.31244 9.65747 2.375 9.5 2.375Z" fill="#04009A"/>
<path d="M7.71875 10.0938H5.34375C5.18628 10.0938 5.03526 10.0312 4.92391 9.91985C4.81256 9.8085 4.75 9.65747 4.75 9.5V7.125C4.75 6.96753 4.81256 6.81651 4.92391 6.70516C5.03526 6.59381 5.18628 6.53125 5.34375 6.53125H7.71875C7.87622 6.53125 8.02724 6.59381 8.13859 6.70516C8.24994 6.81651 8.3125 6.96753 8.3125 7.125V9.5C8.3125 9.65747 8.24994 9.8085 8.13859 9.91985C8.02724 10.0312 7.87622 10.0938 7.71875 10.0938ZM5.9375 8.90625H7.125V7.71875H5.9375V8.90625Z" fill="#04009A"/>
<path d="M7.71875 15.4375H5.34375C5.18628 15.4375 5.03526 15.3749 4.92391 15.2636C4.81256 15.1522 4.75 15.0012 4.75 14.8438V12.4688C4.75 12.3113 4.81256 12.1603 4.92391 12.0489C5.03526 11.9376 5.18628 11.875 5.34375 11.875H7.71875C7.87622 11.875 8.02724 11.9376 8.13859 12.0489C8.24994 12.1603 8.3125 12.3113 8.3125 12.4688V14.8438C8.3125 15.0012 8.24994 15.1522 8.13859 15.2636C8.02724 15.3749 7.87622 15.4375 7.71875 15.4375ZM5.9375 14.25H7.125V13.0625H5.9375V14.25Z" fill="#04009A"/>
<path d="M13.6562 8.90625H10.0938C9.93628 8.90625 9.78525 8.84369 9.6739 8.73234C9.56256 8.62099 9.5 8.46997 9.5 8.3125C9.5 8.15503 9.56256 8.00401 9.6739 7.89266C9.78525 7.78131 9.93628 7.71875 10.0938 7.71875H13.6562C13.8137 7.71875 13.9647 7.78131 14.0761 7.89266C14.1874 8.00401 14.25 8.15503 14.25 8.3125C14.25 8.46997 14.1874 8.62099 14.0761 8.73234C13.9647 8.84369 13.8137 8.90625 13.6562 8.90625Z" fill="#77ACF1"/>
<path d="M13.6562 14.25H10.0938C9.93628 14.25 9.78525 14.1874 9.6739 14.0761C9.56256 13.9647 9.5 13.8137 9.5 13.6562C9.5 13.4988 9.56256 13.3478 9.6739 13.2364C9.78525 13.1251 9.93628 13.0625 10.0938 13.0625H13.6562C13.8137 13.0625 13.9647 13.1251 14.0761 13.2364C14.1874 13.3478 14.25 13.4988 14.25 13.6562C14.25 13.8137 14.1874 13.9647 14.0761 14.0761C13.9647 14.1874 13.8137 14.25 13.6562 14.25Z" fill="#77ACF1"/>
</svg>
